<svg width="147" height="35" viewBox="0 0 147 35" fill="none" xmlns="http://www.w3.org/2000/svg">
<g clip-path="url(#clip0_434_444)">
<path fill-rule="evenodd" clip-rule="evenodd" d="M30.2698 5.37323L30.454 6.48666C30.5991 7.52245 30.6664 8.56768 30.6552 9.61356C30.6539 11.9248 30.3752 14.2274 29.8247 16.4722C29.0803 19.5218 27.7838 22.4093 25.9993 24.9918C23.9372 27.9577 20.9555 30.8748 16.6094 33.2188L16.0776 33.5053L15.546 33.2188C11.1999 30.8748 8.21946 27.9577 6.15613 24.9918C4.37163 22.4093 3.0751 19.5218 2.33068 16.4722C1.78036 14.2279 1.50154 11.9256 1.50022 9.61478C1.48899 8.56889 1.55625 7.52366 1.70144 6.48787L1.88557 5.37444C1.90129 5.28364 1.89888 5.19062 1.87849 5.10075C1.85811 5.01089 1.82013 4.92594 1.76676 4.85082C1.71339 4.77569 1.64568 4.71187 1.56754 4.66303C1.48939 4.61419 1.40235 4.5813 1.31144 4.56626C1.22053 4.55121 1.12754 4.55431 1.03783 4.57537C0.948114 4.59642 0.86346 4.63503 0.788736 4.68896C0.714012 4.74289 0.650699 4.81107 0.602444 4.88957C0.55419 4.96808 0.521948 5.05537 0.507578 5.14639L0.323439 6.25982C0.165054 7.37093 0.0912675 8.49246 0.102716 9.61478C0.103594 12.0394 0.395923 14.4551 0.97341 16.81C1.75951 20.0258 3.12798 23.0704 5.01106 25.793C7.1878 28.926 10.345 32.0066 14.8887 34.4517L15.7521 34.9163C15.8538 34.9713 15.9676 35.0001 16.0832 35.0001C16.1987 35.0001 16.3126 34.9713 16.4143 34.9163L17.2764 34.4517C21.8153 32.0053 24.9737 28.926 27.1541 25.793C29.0362 23.0705 30.4039 20.0264 31.1893 16.8112C31.7668 14.4563 32.0591 12.0406 32.06 9.61601C32.0714 8.49369 31.9976 7.37216 31.8393 6.26105L31.6551 5.14762C31.6408 5.05658 31.6085 4.9693 31.5603 4.8908C31.512 4.81228 31.4487 4.7441 31.374 4.69018C31.2992 4.63625 31.2145 4.59764 31.1249 4.57658C31.0352 4.55552 30.9422 4.55243 30.8512 4.56748C30.7603 4.58253 30.6733 4.61541 30.5951 4.66425C30.517 4.71308 30.4493 4.77691 30.396 4.85203C30.3426 4.92716 30.3046 5.01211 30.2842 5.10198C30.2638 5.19185 30.2614 5.28486 30.2772 5.37567L30.2698 5.37323Z" fill="white"/>
<path fill-rule="evenodd" clip-rule="evenodd" d="M5.70168 4.61469L16.0796 1.44393L26.6893 4.68298C26.8669 4.73609 27.0583 4.71666 27.2217 4.62896C27.385 4.54126 27.507 4.39243 27.5608 4.21503C27.6147 4.03763 27.596 3.84613 27.5091 3.68242C27.4221 3.51871 27.2738 3.39613 27.0966 3.34151L16.2832 0.0402692C16.1506 -0.000402246 16.0087 -0.000402246 15.8759 0.0402692L5.29315 3.27078C5.20471 3.29722 5.12237 3.34086 5.05084 3.39921C4.97932 3.45756 4.92003 3.52946 4.87636 3.61078C4.83269 3.69211 4.80552 3.78126 4.7964 3.87311C4.78728 3.96497 4.79639 4.05772 4.82321 4.14604C4.85003 4.23437 4.89402 4.31652 4.95267 4.3878C5.01132 4.45908 5.08348 4.51806 5.16499 4.56138C5.2465 4.6047 5.33577 4.63149 5.42765 4.64022C5.51954 4.64894 5.61226 4.63944 5.70047 4.61225L5.70168 4.61469Z" fill="white"/>
<path fill-rule="evenodd" clip-rule="evenodd" d="M0.576656 5.57808L15.4551 34.6175C15.5131 34.731 15.6011 34.8265 15.7095 34.8934C15.818 34.9604 15.9427 34.9965 16.0701 34.9976C16.1975 34.9988 16.3228 34.965 16.4325 34.8999C16.542 34.8348 16.6317 34.7409 16.6917 34.6285L25.7651 17.6587L25.7785 17.6319L31.5861 5.55857C31.6647 5.39195 31.6745 5.201 31.6132 5.02722C31.552 4.85345 31.4246 4.71089 31.2587 4.63054C31.0928 4.5502 30.902 4.53856 30.7276 4.59815C30.5532 4.65775 30.4095 4.78376 30.3275 4.9488L24.5297 17.0124L16.0978 32.7931L1.81937 4.93904C1.77822 4.85635 1.72107 4.78263 1.65122 4.72217C1.58138 4.66172 1.50023 4.61572 1.41248 4.58685C1.32473 4.55798 1.23213 4.54681 1.14003 4.55399C1.04794 4.56117 0.958177 4.58656 0.875962 4.62867C0.793744 4.67078 0.720703 4.7288 0.661069 4.79935C0.601435 4.86989 0.556393 4.95157 0.528554 5.03965C0.500715 5.12774 0.490632 5.22046 0.498888 5.31247C0.507146 5.40447 0.533578 5.49392 0.576656 5.57564V5.57808Z" fill="white"/>
<path fill-rule="evenodd" clip-rule="evenodd" d="M7.69817 18.5106H24.2433C24.4285 18.5106 24.606 18.4371 24.737 18.3061C24.8679 18.1752 24.9415 17.9977 24.9415 17.8125C24.9415 17.6273 24.8679 17.4498 24.737 17.3188C24.606 17.1879 24.4285 17.1143 24.2433 17.1143H7.69817C7.513 17.1143 7.33542 17.1879 7.20449 17.3188C7.07356 17.4498 7 17.6273 7 17.8125C7 17.9977 7.07356 18.1752 7.20449 18.3061C7.33542 18.4371 7.513 18.5106 7.69817 18.5106ZM53.847 12.4862H43.0836C42.8976 12.4872 42.7194 12.5616 42.5879 12.6931C42.4564 12.8246 42.3821 13.0027 42.3811 13.1887V21.8277C42.3824 22.0136 42.4568 22.1916 42.5882 22.323C42.7197 22.4545 42.8976 22.5289 43.0836 22.5302H53.847V23.9936H43.0836C42.7996 23.9949 42.5182 23.9399 42.2555 23.8318C41.9929 23.7237 41.7543 23.5647 41.5535 23.3639C41.3527 23.1631 41.1937 22.9245 41.0855 22.6619C40.9775 22.3992 40.9225 22.1178 40.9238 21.8339V13.1948C40.9225 12.9108 40.9775 12.6294 41.0855 12.3668C41.1937 12.1041 41.3527 11.8655 41.5535 11.6647C41.7543 11.4639 41.9929 11.3049 42.2555 11.1968C42.5182 11.0887 42.7996 11.0337 43.0836 11.0351H53.847V12.4862ZM74.058 11.0277V12.4911H63.6921V16.768H72.0238V18.2436H63.6909V22.5277H74.0567V23.9912H62.2274V11.0277H74.058Z" fill="white"/>
<path d="M95.4049 13.2057V17.0033C95.4066 17.2872 95.3515 17.5685 95.243 17.8311C95.1345 18.0936 94.9761 18.3322 94.7749 18.5329C94.5745 18.7338 94.3356 18.8927 94.0731 19.0009C93.8106 19.109 93.5289 19.1642 93.2454 19.163H91.2661L95.3331 23.9862H93.4073L89.3578 19.163H84.6014C84.3662 19.151 84.1317 19.1271 83.899 19.0911V23.9862H82.4355V11.0459H93.234C93.5184 11.0448 93.7993 11.0999 94.0618 11.2081C94.3251 11.3162 94.5631 11.4752 94.7644 11.676C94.9648 11.8768 95.124 12.1153 95.2316 12.3778C95.3401 12.6404 95.3953 12.9217 95.3944 13.2057H95.4049ZM84.6063 17.6874H93.2454C93.3355 17.6886 93.4248 17.6717 93.5088 17.6376C93.5919 17.6037 93.668 17.5534 93.7319 17.4896C93.7958 17.4258 93.8456 17.3499 93.8798 17.2665C93.9139 17.1829 93.9305 17.0934 93.9296 17.0033V13.2057C93.9305 13.1142 93.9139 13.0233 93.8806 12.9384C93.8465 12.8534 93.7958 12.776 93.7319 12.7106C93.6698 12.6437 93.5945 12.5906 93.5105 12.5549C93.4265 12.5191 93.3355 12.5016 93.2445 12.5032H84.6051C84.4191 12.5042 84.241 12.5786 84.1094 12.7101C83.9779 12.8416 83.9036 13.0197 83.9027 13.2057V17.0033C83.9007 17.0946 83.9182 17.1853 83.954 17.2694C83.9897 17.3534 84.0429 17.429 84.1099 17.4911C84.1755 17.5551 84.2531 17.6055 84.3383 17.6392C84.4235 17.673 84.5146 17.6894 84.6063 17.6874Z" fill="white"/>
<path fill-rule="evenodd" clip-rule="evenodd" d="M103.145 11.0277H116.098V12.4911H110.367V23.9923H108.903V12.4911H103.145V11.0277ZM123.949 23.9863V11.0277H125.413V23.9863H123.949ZM144.863 11.0277H146.735L141.318 17.507L146.753 23.9863H144.863L140.04 18.2448H135.864V23.9863H134.391V11.0277H135.867V16.768H140.042L144.863 11.0277Z" fill="white"/>
</g>
<defs>
<clipPath id="clip0_434_444">
<rect width="147" height="35" fill="white"/>
</clipPath>
</defs>
</svg>
