<svg width="22" height="21" viewBox="0 0 22 21" fill="none" xmlns="http://www.w3.org/2000/svg">
<mask id="path-1-inside-1_434_682" fill="white">
<path d="M7.26493 0.916748C6.30232 0.916748 5.37913 1.17136 4.69846 1.62457C4.01779 2.07779 3.6354 2.69247 3.6354 3.33341V15.4167C3.6354 16.0577 4.01779 16.6724 4.69846 17.1256C5.37913 17.5788 6.30232 17.8334 7.26493 17.8334H18.1535C19.1162 17.8334 20.0393 17.5788 20.72 17.1256C21.4007 16.6724 21.7831 16.0577 21.7831 15.4167V3.33341C21.7831 2.69247 21.4007 2.07779 20.72 1.62457C20.0393 1.17136 19.1162 0.916748 18.1535 0.916748H7.26493ZM5.45017 3.33341C5.45017 3.01294 5.64136 2.7056 5.9817 2.47899C6.32203 2.25239 6.78363 2.12508 7.26493 2.12508H18.1535C18.6349 2.12508 19.0964 2.25239 19.4368 2.47899C19.7771 2.7056 19.9683 3.01294 19.9683 3.33341V15.4167C19.9683 15.7372 19.7771 16.0446 19.4368 16.2712C19.0964 16.4978 18.6349 16.6251 18.1535 16.6251H7.26493C6.78363 16.6251 6.32203 16.4978 5.9817 16.2712C5.64136 16.0446 5.45017 15.7372 5.45017 15.4167V3.33341ZM0.00585938 5.75008C0.00587556 5.32588 0.173591 4.90915 0.492148 4.54178C0.810706 4.17441 1.26888 3.86935 1.82063 3.65725V16.0209C1.82063 16.8221 2.29862 17.5904 3.14946 18.157C4.0003 18.7235 5.15428 19.0417 6.35755 19.0417H17.6672C17.3486 19.4091 16.8905 19.7142 16.3387 19.9263C15.787 20.1384 15.1611 20.2501 14.524 20.2501H6.35755C4.67298 20.2501 3.0574 19.8045 1.86623 19.0114C0.675054 18.2183 0.00585938 17.1425 0.00585938 16.0209V5.75008Z"/>
</mask>
<path d="M7.26493 0.916748C6.30232 0.916748 5.37913 1.17136 4.69846 1.62457C4.01779 2.07779 3.6354 2.69247 3.6354 3.33341V15.4167C3.6354 16.0577 4.01779 16.6724 4.69846 17.1256C5.37913 17.5788 6.30232 17.8334 7.26493 17.8334H18.1535C19.1162 17.8334 20.0393 17.5788 20.72 17.1256C21.4007 16.6724 21.7831 16.0577 21.7831 15.4167V3.33341C21.7831 2.69247 21.4007 2.07779 20.72 1.62457C20.0393 1.17136 19.1162 0.916748 18.1535 0.916748H7.26493ZM5.45017 3.33341C5.45017 3.01294 5.64136 2.7056 5.9817 2.47899C6.32203 2.25239 6.78363 2.12508 7.26493 2.12508H18.1535C18.6349 2.12508 19.0964 2.25239 19.4368 2.47899C19.7771 2.7056 19.9683 3.01294 19.9683 3.33341V15.4167C19.9683 15.7372 19.7771 16.0446 19.4368 16.2712C19.0964 16.4978 18.6349 16.6251 18.1535 16.6251H7.26493C6.78363 16.6251 6.32203 16.4978 5.9817 16.2712C5.64136 16.0446 5.45017 15.7372 5.45017 15.4167V3.33341ZM0.00585938 5.75008C0.00587556 5.32588 0.173591 4.90915 0.492148 4.54178C0.810706 4.17441 1.26888 3.86935 1.82063 3.65725V16.0209C1.82063 16.8221 2.29862 17.5904 3.14946 18.157C4.0003 18.7235 5.15428 19.0417 6.35755 19.0417H17.6672C17.3486 19.4091 16.8905 19.7142 16.3387 19.9263C15.787 20.1384 15.1611 20.2501 14.524 20.2501H6.35755C4.67298 20.2501 3.0574 19.8045 1.86623 19.0114C0.675054 18.2183 0.00585938 17.1425 0.00585938 16.0209V5.75008Z" fill="white"/>
<path d="M3.6354 3.33341H-0.364603H3.6354ZM3.6354 15.4167H-0.364603H3.6354ZM7.26493 2.12508V-1.87492V2.12508ZM18.1535 2.12508V-1.87492V2.12508ZM0.00585938 5.75008L-3.99414 5.74993V5.75008H0.00585938ZM1.82063 3.65725H5.82063V-2.1658L0.385351 -0.0763819L1.82063 3.65725ZM1.82063 16.0209H-2.17937H1.82063ZM17.6672 19.0417L20.6893 21.6622L26.43 15.0417H17.6672V19.0417ZM14.524 20.2501V24.2501H14.5241L14.524 20.2501ZM7.26493 -3.08325C5.65607 -3.08325 3.92839 -2.66824 2.48159 -1.70491L6.91534 4.95405C6.85631 4.99336 6.85723 4.97942 6.93945 4.95674C7.01773 4.93515 7.13084 4.91675 7.26493 4.91675V-3.08325ZM2.48159 -1.70491C1.03298 -0.740379 -0.364603 0.986055 -0.364603 3.33341H7.6354C7.6354 4.39889 7.00261 4.89595 6.91534 4.95405L2.48159 -1.70491ZM-0.364603 3.33341V15.4167H7.6354V3.33341H-0.364603ZM-0.364603 15.4167C-0.364603 17.7641 1.03298 19.4905 2.48159 20.4551L6.91534 13.7961C7.00261 13.8542 7.6354 14.3513 7.6354 15.4167H-0.364603ZM2.48159 20.4551C3.92839 21.4184 5.65607 21.8334 7.26493 21.8334V13.8334C7.13084 13.8334 7.01773 13.815 6.93945 13.7934C6.85723 13.7707 6.85631 13.7568 6.91534 13.7961L2.48159 20.4551ZM7.26493 21.8334H18.1535V13.8334H7.26493V21.8334ZM18.1535 21.8334C19.7624 21.8334 21.4901 21.4184 22.9369 20.4551L18.5031 13.7961C18.5622 13.7568 18.5613 13.7707 18.479 13.7934C18.4007 13.815 18.2876 13.8334 18.1535 13.8334V21.8334ZM22.9369 20.4551C24.3855 19.4905 25.7831 17.7641 25.7831 15.4167H17.7831C17.7831 14.3513 18.4159 13.8542 18.5031 13.7961L22.9369 20.4551ZM25.7831 15.4167V3.33341H17.7831V15.4167H25.7831ZM25.7831 3.33341C25.7831 0.986052 24.3855 -0.740381 22.9369 -1.70491L18.5031 4.95405C18.4159 4.89595 17.7831 4.3989 17.7831 3.33341H25.7831ZM22.9369 -1.70491C21.4901 -2.66824 19.7624 -3.08325 18.1535 -3.08325V4.91675C18.2876 4.91675 18.4007 4.93515 18.479 4.95674C18.5613 4.97942 18.5622 4.99336 18.5031 4.95405L22.9369 -1.70491ZM18.1535 -3.08325H7.26493V4.91675H18.1535V-3.08325ZM9.45017 3.33341C9.45017 4.71936 8.62618 5.52377 8.19858 5.80848L3.76482 -0.850489C2.65655 -0.112568 1.45017 1.30652 1.45017 3.33341H9.45017ZM8.19858 5.80848C7.96938 5.96108 7.76981 6.03562 7.63394 6.07309C7.49411 6.11166 7.37149 6.12508 7.26493 6.12508V-1.87492C6.13738 -1.87492 4.87129 -1.58721 3.76482 -0.850489L8.19858 5.80848ZM7.26493 6.12508H18.1535V-1.87492H7.26493V6.12508ZM18.1535 6.12508C18.047 6.12508 17.9244 6.11166 17.7845 6.07309C17.6487 6.03562 17.4491 5.96108 17.2199 5.80848L21.6537 -0.850489C20.5472 -1.58721 19.2811 -1.87492 18.1535 -1.87492V6.12508ZM17.2199 5.80848C16.7923 5.52377 15.9683 4.71936 15.9683 3.33341H23.9683C23.9683 1.30652 22.7619 -0.112568 21.6537 -0.850489L17.2199 5.80848ZM15.9683 3.33341V15.4167H23.9683V3.33341H15.9683ZM15.9683 15.4167C15.9683 14.0308 16.7923 13.2264 17.2199 12.9417L21.6537 19.6006C22.7619 18.8627 23.9683 17.4436 23.9683 15.4167H15.9683ZM17.2199 12.9417C17.4491 12.7891 17.6487 12.7145 17.7845 12.6771C17.9244 12.6385 18.047 12.6251 18.1535 12.6251V20.6251C19.2811 20.6251 20.5472 20.3374 21.6537 19.6006L17.2199 12.9417ZM18.1535 12.6251H7.26493V20.6251H18.1535V12.6251ZM7.26493 12.6251C7.3715 12.6251 7.49411 12.6385 7.63394 12.6771C7.76982 12.7145 7.96938 12.7891 8.19858 12.9417L3.76482 19.6006C4.87129 20.3374 6.13738 20.6251 7.26493 20.6251V12.6251ZM8.19858 12.9417C8.62617 13.2264 9.45017 14.0308 9.45017 15.4167H1.45017C1.45017 17.4436 2.65655 18.8627 3.76482 19.6006L8.19858 12.9417ZM9.45017 15.4167V3.33341H1.45017V15.4167H9.45017ZM4.00586 5.75023C4.00583 6.4285 3.72829 6.91542 3.5142 7.16231L-2.52991 1.92125C-3.38111 2.90287 -3.99408 4.22325 -3.99414 5.74993L4.00586 5.75023ZM3.5142 7.16231C3.41233 7.27979 3.32683 7.34347 3.2858 7.37078C3.24397 7.39864 3.2309 7.40049 3.2559 7.39087L0.385351 -0.0763819C-0.647831 0.320793 -1.69843 0.962366 -2.52991 1.92125L3.5142 7.16231ZM-2.17937 3.65725V16.0209H5.82063V3.65725H-2.17937ZM-2.17937 16.0209C-2.17937 18.5285 -0.68619 20.4086 0.932583 21.4864L5.36634 14.8275C5.28344 14.7723 5.82063 15.1157 5.82063 16.0209H-2.17937ZM0.932583 21.4864C2.54955 22.5631 4.50803 23.0417 6.35755 23.0417V15.0417C5.80053 15.0417 5.45104 14.8839 5.36634 14.8275L0.932583 21.4864ZM6.35755 23.0417H17.6672V15.0417H6.35755V23.0417ZM14.6451 16.4212C14.747 16.3038 14.8325 16.2401 14.8735 16.2128C14.9153 16.1849 14.9284 16.1831 14.9034 16.1927L17.774 23.6599C18.8072 23.2627 19.8578 22.6211 20.6893 21.6622L14.6451 16.4212ZM14.9034 16.1927C14.8442 16.2154 14.7087 16.2501 14.5239 16.2501L14.5241 24.2501C15.6135 24.25 16.7297 24.0614 17.774 23.6599L14.9034 16.1927ZM14.524 16.2501H6.35755V24.2501H14.524V16.2501ZM6.35755 16.2501C5.31922 16.2501 4.50814 15.9649 4.08311 15.6819L-0.350652 22.3409C1.60666 23.6441 4.02673 24.2501 6.35755 24.2501V16.2501ZM4.08311 15.6819C3.88675 15.5512 3.85524 15.4774 3.88577 15.5264C3.90227 15.553 3.93333 15.6105 3.96011 15.6997C3.98733 15.7904 4.00586 15.9 4.00586 16.0209H-3.99414C-3.99414 18.849 -2.30976 21.0364 -0.350652 22.3409L4.08311 15.6819ZM4.00586 16.0209V5.75008H-3.99414V16.0209H4.00586Z" fill="white" mask="url(#path-1-inside-1_434_682)"/>
</svg>
