<svg width="75" height="75" viewBox="0 0 75 75" fill="none" xmlns="http://www.w3.org/2000/svg">
<circle cx="37.5" cy="37.5" r="37.5" fill="white"/>
<path d="M44.997 38.5105C44.997 39.7934 44.6165 41.0475 43.9038 42.1142C43.1911 43.1809 42.178 44.0123 40.9928 44.5032C39.8075 44.9942 38.5033 45.1226 37.245 44.8723C35.9868 44.6221 34.831 44.0043 33.9239 43.0971C33.0167 42.19 32.3989 41.0342 32.1486 39.7759C31.8984 38.5177 32.0268 37.2135 32.5178 36.0282C33.0087 34.843 33.8401 33.8299 34.9068 33.1172C35.9735 32.4044 37.2276 32.024 38.5105 32.024C40.2292 32.0294 41.8759 32.7145 43.0912 33.9298C44.3065 35.1451 44.9916 36.7918 44.997 38.5105ZM58.7808 29.5916V47.4294C58.7808 50.44 57.5848 53.3272 55.456 55.456C53.3272 57.5848 50.44 58.7808 47.4294 58.7808H29.5916C26.581 58.7808 23.6938 57.5848 21.565 55.456C19.4362 53.3272 18.2402 50.44 18.2402 47.4294V29.5916C18.2402 26.581 19.4362 23.6938 21.565 21.565C23.6938 19.4362 26.581 18.2402 29.5916 18.2402H47.4294C50.44 18.2402 53.3272 19.4362 55.456 21.565C57.5848 23.6938 58.7808 26.581 58.7808 29.5916ZM48.2402 38.5105C48.2402 36.5861 47.6696 34.705 46.6005 33.1049C45.5313 31.5049 44.0118 30.2578 42.2339 29.5214C40.456 28.785 38.4997 28.5923 36.6123 28.9677C34.7249 29.3431 32.9913 30.2698 31.6305 31.6305C30.2698 32.9913 29.3431 34.7249 28.9677 36.6123C28.5923 38.4997 28.785 40.456 29.5214 42.2339C30.2578 44.0118 31.5049 45.5313 33.1049 46.6005C34.705 47.6696 36.5861 48.2402 38.5105 48.2402C41.091 48.2402 43.5658 47.2151 45.3904 45.3904C47.2151 43.5658 48.2402 41.091 48.2402 38.5105ZM51.4835 27.97C51.4835 27.4889 51.3408 27.0186 51.0735 26.6186C50.8062 26.2186 50.4263 25.9068 49.9819 25.7227C49.5374 25.5386 49.0483 25.4904 48.5765 25.5843C48.1046 25.6781 47.6712 25.9098 47.331 26.25C46.9909 26.5902 46.7592 27.0236 46.6653 27.4954C46.5715 27.9673 46.6196 28.4563 46.8038 28.9008C46.9879 29.3453 47.2996 29.7252 47.6996 29.9925C48.0997 30.2597 48.5699 30.4024 49.051 30.4024C49.6961 30.4024 50.3148 30.1461 50.771 29.6899C51.2272 29.2338 51.4835 28.6151 51.4835 27.97Z" fill="#DA7205"/>
</svg>
