<svg width="183" height="50" viewBox="0 0 183 50" fill="none" xmlns="http://www.w3.org/2000/svg">
<g clip-path="url(#clip0_434_704)">
<path d="M70.9615 21.8115C70.4362 19.8188 69.1499 18.3333 66.6137 18.3333C62.8637 18.3333 61.3057 21.6304 61.3057 24.9818C61.3057 28.3333 62.8637 31.6485 66.6137 31.6485C69.3311 31.6485 70.8166 29.6014 71.0521 27.0651H74.0412C73.7876 31.2318 70.8347 34.1304 66.6137 34.1304C61.3782 34.1304 58.2441 29.9637 58.2441 24.9818C58.2441 19.9999 61.3601 15.8333 66.5956 15.8333C70.5449 15.8514 73.6427 18.0253 74.0231 21.8115H70.9434H70.9615ZM75.8528 27.3731C75.8528 23.5144 78.1717 20.7246 82.2296 20.7246C86.2876 20.7246 88.6065 23.5144 88.6065 27.3731C88.6065 31.2318 86.2876 34.0579 82.2296 34.0579C78.1717 34.0579 75.8528 31.2681 75.8528 27.3731ZM85.8166 27.3731C85.8166 25.1992 84.7296 22.9347 82.2296 22.9347C79.7296 22.9347 78.6246 25.1811 78.6246 27.355C78.6246 29.5289 79.7115 31.8296 82.2115 31.8296C84.7115 31.8296 85.7985 29.5652 85.7985 27.355L85.8166 27.3731ZM91.0159 16.2499H93.7876V18.8949H90.9978V16.2499H91.0159ZM91.0159 21.0688H93.7876V33.6956H90.9978V21.0506L91.0159 21.0688ZM96.8311 21.0688H99.4579V22.9347L99.4941 22.9709C99.8962 22.2818 100.473 21.7112 101.167 21.3167C101.86 20.9222 102.646 20.718 103.443 20.7246C106.161 20.7246 107.918 22.1738 107.918 25.018V33.7137H105.128V25.7608C105.074 23.768 104.295 22.9347 102.664 22.9347C100.798 22.9347 99.5847 24.384 99.5847 26.2499V33.7137H96.813V21.0688H96.8311ZM126.487 33.6956H124.53L124.077 31.6485C123.466 32.4543 122.669 33.1008 121.755 33.5328C120.84 33.9649 119.835 34.1699 118.824 34.1304C113.588 34.1304 110.454 29.9637 110.454 24.9818C110.454 19.9999 113.588 15.8333 118.806 15.8333C122.61 15.8333 125.835 17.8622 126.306 21.8115H123.317C123.027 19.4927 121.016 18.3333 118.806 18.3333C115.074 18.3333 113.498 21.6304 113.498 24.9818C113.498 28.3333 115.074 31.6304 118.824 31.6304C121.94 31.6847 123.661 29.8007 123.715 26.8296H119.059V24.5108H126.487V33.7137V33.6956ZM131.614 28.1159C131.614 30.0905 132.683 31.8478 135.001 31.8478C136.632 31.8478 137.592 31.1412 138.081 29.7463H140.726C140.11 32.5181 137.773 34.0579 135.001 34.0579C131.034 34.0579 128.824 31.2862 128.824 27.3912C128.824 23.8043 131.179 20.7246 134.929 20.7246C138.914 20.7246 141.36 24.3115 140.907 28.1159H131.614ZM138.117 26.268C138.009 24.5108 136.813 22.9166 134.929 22.9166C132.991 22.9166 131.668 24.384 131.614 26.268H138.117ZM151.559 25.2898C151.342 23.7499 150.219 22.9347 148.661 22.9347C147.212 22.9347 145.219 23.6775 145.219 27.518C145.219 29.6195 146.125 31.8659 148.552 31.8659C150.183 31.8659 151.288 30.7789 151.559 28.9673H154.349C153.842 32.2282 151.813 34.0398 148.552 34.0398C144.585 34.0398 142.411 31.2318 142.411 27.518C142.411 23.7137 144.494 20.7246 148.643 20.7246C151.577 20.7246 154.077 22.192 154.349 25.2898H151.559Z" fill="white"/>
<path d="M156.703 16.25H159.493V26.1775L164.529 21.0688H167.953L163.116 25.7065L168.424 33.7138H165.018L161.142 27.5725L159.493 29.1848V33.7138H156.703V16.25Z" fill="white"/>
<path d="M169.168 27.3732C169.168 23.5145 171.487 20.7246 175.545 20.7246C179.621 20.7246 181.94 23.5145 181.94 27.3732C181.94 31.2319 179.621 34.058 175.545 34.058C171.487 34.058 169.168 31.2681 169.168 27.3732ZM179.132 27.3732C179.132 25.1993 178.045 22.9348 175.545 22.9348C173.063 22.9348 171.958 25.1993 171.958 27.3732C171.958 29.5471 173.045 31.8478 175.545 31.8478C178.045 31.8478 179.15 29.5833 179.15 27.3732H179.132Z" fill="white"/>
<path d="M50.0003 24.8911C50.0145 28.1741 49.382 31.4278 48.1388 34.4664C46.8957 37.505 45.0662 40.269 42.7548 42.6006C40.4434 44.9321 37.6954 46.7856 34.6678 48.0552C31.6401 49.3247 28.392 49.9855 25.1089 49.9998C21.8259 50.0141 18.5722 49.3815 15.5336 48.1384C12.495 46.8952 9.73099 45.0657 7.39943 42.7543C5.06787 40.4429 3.2144 37.695 1.94485 34.6673C0.675289 31.6396 0.0145107 28.3915 0.000236624 25.1085C-0.0285912 18.478 2.57768 12.1077 7.24571 7.39894C11.9137 2.69015 18.2611 0.0285762 24.8916 -0.000251656C31.522 -0.0290796 37.8923 2.5772 42.6011 7.24522C47.3099 11.9133 49.9714 18.2607 50.0003 24.8911Z" fill="#8DC63F"/>
<path d="M48.135 24.8913C48.1493 27.9281 47.5653 30.938 46.4163 33.7491C45.2674 36.5602 43.576 39.1175 41.4387 41.275C39.3014 43.4324 36.7602 45.1478 33.96 46.3231C31.1598 47.4984 28.1555 48.1107 25.1187 48.125C18.9856 48.1538 13.0922 45.7451 8.73503 41.4287C4.37787 37.1123 1.91385 31.2418 1.88502 25.1087C1.85619 18.9756 4.26492 13.0822 8.58132 8.72502C12.8977 4.36786 18.7682 1.90384 24.9013 1.87501C31.0344 1.84618 36.9278 4.25491 41.285 8.5713C45.6422 12.8877 48.1062 18.7582 48.135 24.8913Z" fill="#F9E988"/>
<path d="M25.418 3.38755C28.395 2.88102 31.4559 3.3848 34.1136 4.81871C35.4361 5.54335 36.5774 6.5035 37.7006 7.42741C38.8419 8.35133 39.9651 9.29336 41.052 10.326C43.216 12.4096 44.871 14.9635 45.889 17.7897C46.8692 20.6153 47.149 23.6366 46.7042 26.5941H46.5593C45.9105 22.3817 44.6022 18.2978 42.6825 14.4926C41.9941 13.2245 41.2332 12.0289 40.418 10.8694C39.5892 9.69698 38.5732 8.66877 37.4107 7.82596C36.2177 7.0452 34.9341 6.41253 33.5883 5.9419C32.2658 5.41654 30.9796 4.89118 29.6028 4.49263C28.2622 4.11219 26.8854 3.82234 25.4361 3.53248V3.38755H25.418Z" fill="white"/>
<path d="M36.721 16.7392C35.0544 16.25 33.3152 15.5616 31.558 14.8732C31.4493 14.4203 31.0507 13.8769 30.2717 13.2066C29.1123 12.2102 26.9565 12.2283 25.0906 12.6631C23.1164 12.125 21.0427 12.0629 19.0399 12.4819C3.04348 16.9022 12.1196 27.645 6.25 38.4421C7.06522 40.2175 16.087 50.5436 29.1123 47.7718C29.1123 47.7718 24.6558 37.0834 34.7102 31.9385C42.8623 27.7537 48.75 20.0182 36.721 16.7211V16.7392Z" fill="#8BC53F"/>
<path d="M38.6955 23.7681C38.7145 23.9064 38.7036 24.0473 38.6636 24.1811C38.6235 24.315 38.5553 24.4387 38.4635 24.5439C38.3717 24.6492 38.2584 24.7336 38.1312 24.7914C38.0041 24.8492 37.866 24.8791 37.7263 24.8791C37.5866 24.8791 37.4486 24.8492 37.3214 24.7914C37.1942 24.7336 37.0809 24.6492 36.9891 24.5439C36.8973 24.4387 36.8291 24.315 36.7891 24.1811C36.749 24.0473 36.7381 23.9064 36.7571 23.7681C36.7892 23.5338 36.9051 23.3191 37.0832 23.1637C37.2614 23.0082 37.4899 22.9226 37.7263 22.9226C37.9628 22.9226 38.1912 23.0082 38.3694 23.1637C38.5476 23.3191 38.6634 23.5338 38.6955 23.7681Z" fill="white"/>
<path d="M25.0918 12.6812C26.2512 12.7537 30.4722 14.1305 31.5592 14.8551C30.6534 12.2283 27.5918 11.8841 25.0918 12.6812Z" fill="#009345"/>
<path d="M26.1954 19.3115C26.1954 20.4983 25.7239 21.6364 24.8848 22.4756C24.0456 23.3148 22.9075 23.7862 21.7207 23.7862C20.534 23.7862 19.3958 23.3148 18.5567 22.4756C17.7175 21.6364 17.2461 20.4983 17.2461 19.3115C17.2461 18.1248 17.7175 16.9867 18.5567 16.1475C19.3958 15.3083 20.534 14.8369 21.7207 14.8369C22.9075 14.8369 24.0456 15.3083 24.8848 16.1475C25.7239 16.9867 26.1954 18.1248 26.1954 19.3115Z" fill="white"/>
<path d="M24.8734 19.3477C24.9063 19.7805 24.8494 20.2155 24.7064 20.6253C24.5633 21.0351 24.3372 21.411 24.0421 21.7293C23.747 22.0477 23.3894 22.3017 22.9916 22.4753C22.5938 22.649 22.1644 22.7387 21.7303 22.7387C21.2962 22.7387 20.8668 22.649 20.469 22.4753C20.0712 22.3017 19.7136 22.0477 19.4185 21.7293C19.1234 21.411 18.8973 21.0351 18.7542 20.6253C18.6112 20.2155 18.5543 19.7805 18.5872 19.3477C18.6474 18.5553 19.0047 17.8149 19.5875 17.2747C20.1703 16.7345 20.9356 16.4343 21.7303 16.4343C22.525 16.4343 23.2903 16.7345 23.8731 17.2747C24.456 17.8149 24.8132 18.5553 24.8734 19.3477Z" fill="#58595B"/>
<path d="M42.3191 25.7246C38.4115 28.6855 33.6347 30.2714 28.7322 30.2355C26.0148 30.2355 25.4532 27.337 23.6416 28.75C21.6228 30.1264 19.2539 30.8993 16.8119 30.9783C14.8446 30.8874 12.9697 30.1174 11.5064 28.7995C10.0431 27.4815 9.08189 25.6971 8.78649 23.75C8.31547 29.3297 8.06185 33.442 5.97852 38.1341C10.1452 44.8007 20.0908 49.9638 29.1126 47.7355C28.1343 40.9783 34.0582 34.3297 37.3735 30.9601C38.6416 29.6739 41.051 27.5725 42.3191 25.7065V25.7246Z" fill="#8BC53F"/>
<path d="M42.1751 25.9059C41.0286 26.9012 39.748 27.7306 38.3707 28.3697C36.9758 29.0219 35.5446 29.5472 34.0591 29.9277C32.5729 30.3649 31.0224 30.5426 29.4758 30.453C27.8979 30.3863 26.4033 29.7263 25.291 28.6052L25.3454 28.5508C26.6009 29.3139 28.0428 29.7152 29.512 29.7103C32.501 29.8169 35.4749 29.2407 38.2077 28.0255C39.6142 27.4902 40.9378 26.7583 42.1389 25.8516L42.1932 25.9059H42.1751Z" fill="#58595B"/>
</g>
<defs>
<clipPath id="clip0_434_704">
<rect width="182.065" height="50" fill="white"/>
</clipPath>
</defs>
</svg>
