<svg width="75" height="75" viewBox="0 0 75 75" fill="none" xmlns="http://www.w3.org/2000/svg">
<circle cx="37.5" cy="37.5" r="37.5" fill="white"/>
<path d="M23.4475 29.12C23.4705 28.8917 23.4397 28.6613 23.3577 28.4471C23.2756 28.2328 23.1446 28.0408 22.975 27.8863L19.4725 23.6356V23H30.3437L38.7475 41.5719L46.135 23H56.5V23.6356L53.5056 26.525C53.3787 26.623 53.2808 26.7536 53.2224 26.9028C53.1639 27.0521 53.1471 27.2144 53.1737 27.3725V48.6238C53.1471 48.7818 53.1639 48.9442 53.2224 49.0934C53.2808 49.2427 53.3787 49.3733 53.5056 49.4713L56.4306 52.3625V53H41.7231V52.3644L44.7531 49.4019C45.0512 49.1019 45.0512 49.0137 45.0512 48.5562V31.3775L36.6287 52.9287H35.4925L25.6862 31.3775V45.8225C25.6056 46.4281 25.8062 47.0413 26.23 47.48L30.1694 52.295V52.9287H19V52.295L22.9375 47.48C23.1458 47.2626 23.3005 46.9995 23.389 46.7117C23.4776 46.4239 23.4976 46.1194 23.4475 45.8225V29.12Z" fill="#DA7205"/>
</svg>
