<svg width="75" height="75" viewBox="0 0 75 75" fill="none" xmlns="http://www.w3.org/2000/svg">
<circle cx="37.5" cy="37.5" r="37.5" fill="white"/>
<path d="M58.4409 17.4907C57.9418 17.077 57.34 16.806 56.6993 16.7066C56.0587 16.6071 55.4031 16.6829 54.802 16.9259L13.3274 33.6689C12.6572 33.9443 12.0866 34.4171 11.6914 35.0244C11.2962 35.6317 11.095 36.3448 11.1146 37.0691C11.1342 37.7935 11.3736 38.4947 11.8011 39.0798C12.2286 39.6648 12.8239 40.106 13.508 40.3448L22.4571 43.4513L27.3066 59.4837C27.3159 59.5161 27.346 59.5369 27.3598 59.567C27.4098 59.6949 27.4828 59.8126 27.5751 59.9142C27.7154 60.071 27.8966 60.1856 28.0983 60.2453C28.1214 60.2545 28.1376 60.2754 28.1608 60.28H28.1747L28.1816 60.2823C28.3607 60.3208 28.5468 60.3113 28.721 60.2545C28.7395 60.2499 28.758 60.2499 28.7788 60.243C28.9461 60.1843 29.0974 60.0876 29.221 59.9605C29.2349 59.9443 29.258 59.942 29.2719 59.9281L36.2464 52.2291L46.4247 60.111C47.0427 60.5948 47.8043 60.8564 48.589 60.8564C50.2881 60.8564 51.7534 59.6666 52.1029 58.0068L59.6539 20.9282C59.7819 20.2987 59.7368 19.6463 59.5232 19.0405C59.3095 18.4347 58.9355 17.8982 58.4409 17.4884V17.4907ZM29.8367 46.4953L28.2001 54.4513L24.7858 43.1596L41.7187 34.3402L30.1515 45.9096C29.9913 46.0697 29.8818 46.2734 29.8367 46.4953ZM49.8344 57.5416C49.791 57.7515 49.6942 57.9467 49.5536 58.1084C49.4129 58.2702 49.233 58.393 49.0312 58.4652C48.8342 58.541 48.621 58.5642 48.4123 58.5325C48.2037 58.5009 48.0069 58.4154 47.8414 58.2846L36.8159 49.7453C36.5854 49.5674 36.2963 49.4828 36.0063 49.5086C35.7163 49.5343 35.4466 49.6684 35.2511 49.8842L30.3969 55.2337L32.0312 47.3008L48.6724 30.6573C48.8673 30.4618 48.9858 30.2031 49.0067 29.9278C49.0276 29.6525 48.9494 29.3789 48.7862 29.1562C48.623 28.9335 48.3857 28.7765 48.1169 28.7134C47.8481 28.6504 47.5657 28.6855 47.3205 28.8124L23.3321 41.3078L14.2649 38.155C14.0245 38.0756 13.8148 37.9233 13.6651 37.7191C13.5153 37.515 13.4329 37.2693 13.4293 37.0161C13.4177 36.7607 13.486 36.5081 13.6245 36.2932C13.7631 36.0784 13.965 35.9119 14.2024 35.817L55.6701 19.074C55.8826 18.9837 56.116 18.9545 56.3442 18.9897C56.5724 19.0249 56.7863 19.123 56.9617 19.2731C57.1362 19.4143 57.268 19.6011 57.3424 19.8129C57.4168 20.0246 57.4309 20.2529 57.383 20.4721L49.8344 57.5439V57.5416Z" fill="#DA7205"/>
</svg>
