<svg width="75" height="75" viewBox="0 0 75 75" fill="none" xmlns="http://www.w3.org/2000/svg">
<circle cx="37.5" cy="37.5" r="37.5" fill="white"/>
<g clip-path="url(#clip0_434_526)">
<path d="M62.1135 26.2273C60.421 26.9773 58.6027 27.484 56.6912 27.7131C58.6635 26.5329 60.1391 24.6755 60.8426 22.4874C58.9896 23.5881 56.9615 24.3628 54.8466 24.778C53.4244 23.2594 51.5407 22.2529 49.4879 21.9147C47.435 21.5765 45.3279 21.9255 43.4938 22.9075C41.6596 23.8895 40.2009 25.4496 39.3443 27.3456C38.4876 29.2416 38.2809 31.3673 38.7561 33.3928C35.0014 33.2043 31.3283 32.2284 27.9752 30.5284C24.6221 28.8285 21.6639 26.4425 19.2926 23.5252C18.4818 24.9239 18.0156 26.5455 18.0156 28.2725C18.0147 29.8273 18.3975 31.3582 19.1302 32.7294C19.8629 34.1007 20.9227 35.2699 22.2156 36.1334C20.7162 36.0856 19.2498 35.6805 17.9386 34.9516V35.0732C17.9384 37.2538 18.6927 39.3672 20.0734 41.055C21.4541 42.7427 23.3762 43.9008 25.5136 44.3327C24.1226 44.7091 22.6642 44.7646 21.2487 44.4948C21.8517 46.3711 23.0264 48.0118 24.6082 49.1873C26.1901 50.3627 28.0999 51.0141 30.0703 51.0502C26.7254 53.6761 22.5944 55.1004 18.3419 55.0942C17.5887 55.0944 16.836 55.0504 16.0879 54.9624C20.4044 57.7378 25.4291 59.2107 30.5609 59.205C47.9325 59.205 57.4291 44.8171 57.4291 32.3388C57.4291 31.9334 57.4189 31.5239 57.4007 31.1185C59.2479 29.7826 60.8424 28.1284 62.1095 26.2334L62.1135 26.2273Z" fill="#DA7205"/>
</g>
<defs>
<clipPath id="clip0_434_526">
<rect width="48.6486" height="48.6486" fill="white" transform="translate(14.1895 16.2197)"/>
</clipPath>
</defs>
</svg>
