<svg width="75" height="75" viewBox="0 0 75 75" fill="none" xmlns="http://www.w3.org/2000/svg">
<circle cx="37.5" cy="37.5" r="37.5" fill="white"/>
<g clip-path="url(#clip0_434_533)">
<path d="M54.805 29.2361C54.6006 28.5067 54.2023 27.8464 53.6525 27.3252C53.0872 26.7881 52.3943 26.4038 51.6393 26.2088C48.8136 25.464 37.4928 25.464 37.4928 25.464C32.7732 25.4103 28.0549 25.6465 23.3643 26.1712C22.6093 26.3806 21.9177 26.7735 21.3511 27.3147C20.7944 27.8503 20.3911 28.5109 20.1805 29.2346C19.6745 31.9606 19.4286 34.7285 19.4462 37.501C19.4282 40.2711 19.6734 43.0381 20.1805 45.7675C20.3866 46.4882 20.7884 47.1457 21.3466 47.6768C21.9048 48.208 22.5999 48.5917 23.3643 48.7948C26.2276 49.5381 37.4928 49.5381 37.4928 49.5381C42.2183 49.5918 46.9427 49.3557 51.6393 48.8309C52.3943 48.6358 53.0872 48.2516 53.6525 47.7145C54.2092 47.1833 54.6049 46.5228 54.8035 45.8036C55.3228 43.0786 55.5752 40.3096 55.5573 37.5356C55.5964 34.75 55.3443 31.9679 54.805 29.2346V29.2361ZM33.8937 42.6529V32.3507L43.3127 37.5025L33.8937 42.6529Z" fill="#DA7205"/>
</g>
<defs>
<clipPath id="clip0_434_533">
<rect width="36.1111" height="36.1111" fill="white" transform="translate(19.4453 19.4453)"/>
</clipPath>
</defs>
</svg>
